<svg width="1920" height="1080" viewBox="0 0 1920 1080" fill="none" xmlns="http://www.w3.org/2000/svg">
<mask id="mask0_310_18" style="mask-type:alpha" maskUnits="userSpaceOnUse" x="0" y="0" width="1920" height="1080">
<rect width="1920" height="1080" fill="#D9D9D9"/>
</mask>
<g mask="url(#mask0_310_18)">
<path d="M1254.04 1092.24L1254.44 1092.06L737.118 433.058L736.9 433.15C725.51 415.96 701.734 404 673.974 404C645.483 404 621.068 416.543 610.067 434.489L265.792 873.048L181.501 765.674L181.392 765.72C175.386 756.656 162.86 750.338 148.202 750.338C133.202 750.338 120.333 756.953 114.529 766.384L-131.201 1079.44H-132.306V1080.84L-156.098 1111.14C-158.852 1113.8 -160.533 1117.07 -160.533 1120.66C-160.533 1129.41 -150.901 1136.49 -139.028 1136.49C-136.663 1136.49 -134.438 1136.15 -132.306 1135.62V1136.66H132.221H443.43H1221.45V1136.09C1242.44 1134.86 1259 1122.08 1259 1106.32C1259.02 1101.2 1257.1 1096.46 1254.04 1092.24Z" fill="#535353"/>
<path d="M1892.29 977.236L1892.68 977.064L1402.15 318.058L1401.95 318.15C1391.15 300.96 1368.6 289 1342.28 289C1315.26 289 1292.11 301.543 1281.68 319.489L955.241 758.048L875.317 650.674L875.213 650.72C869.518 641.656 857.641 635.338 843.742 635.338C829.519 635.338 817.317 641.953 811.814 651.384L578.812 964.441H577.764V965.837L555.205 996.143C552.593 998.798 551 1002.07 551 1005.66C551 1014.41 560.133 1021.49 571.391 1021.49C573.633 1021.49 575.743 1021.15 577.764 1020.62V1021.66H828.589H1123.68H1861.4V1021.09C1881.3 1019.86 1897 1007.08 1897 991.325C1897.01 986.197 1895.2 981.459 1892.29 977.236Z" fill="#535353"/>
<path d="M2267.86 1044.6L2268.19 1044.36L1836.33 118.811L1836.15 118.939C1826.64 94.7969 1806.79 78 1783.62 78C1759.83 78 1739.45 95.6167 1730.27 120.82L1442.86 736.761L1372.5 585.958L1372.4 586.022C1367.39 573.292 1356.93 564.419 1344.7 564.419C1332.17 564.419 1321.43 573.71 1316.59 586.955L1111.45 1026.63H1110.53V1028.59L1090.67 1071.16C1088.37 1074.88 1086.96 1079.48 1086.96 1084.53C1086.96 1096.81 1095 1106.76 1104.92 1106.76C1106.89 1106.76 1108.75 1106.28 1110.53 1105.54V1107H1331.36H1591.16H2240.65V1106.2C2258.18 1104.46 2272 1086.52 2272 1064.39C2272.01 1057.19 2270.41 1050.53 2267.86 1044.6Z" fill="#2F2F2F"/>
<path d="M886.775 1073.21L887.212 1073L329.22 245.488L328.985 245.603C316.699 224.018 291.054 209 261.111 209C230.38 209 204.047 224.751 192.181 247.284L-179.159 797.979L-270.077 663.151L-270.194 663.208C-276.673 651.827 -290.184 643.894 -305.994 643.894C-322.174 643.894 -336.054 652.2 -342.314 664.042L-607.363 1057.15H-608.554V1058.9L-634.217 1096.95C-637.187 1100.29 -639 1104.4 -639 1108.91C-639 1119.89 -628.611 1128.78 -615.805 1128.78C-613.254 1128.78 -610.854 1128.35 -608.554 1127.69V1129H-323.231H12.4437H851.63V1128.28C874.271 1126.73 892.129 1110.69 892.129 1090.9C892.146 1084.46 890.082 1078.51 886.775 1073.21Z" fill="#3B3B3B"/>
</g>
</svg>
