{"accessors" : [{"bufferView" : 0, "byteOffset" : 0, "componentType" : 5123, "count" : 30768, "type" : "SCALAR", "max" : [30767], "min" : [0]}, {"bufferView" : 1, "byteOffset" : 0, "componentType" : 5126, "count" : 30768, "type" : "VEC3", "max" : [51.20219039916992, 31.856447219848633, 152.48428344726562], "min" : [-75.46394348144531, -31.856449127197266, -1.1054378745711801E-08], "name" : "POSITION"}, {"bufferView" : 1, "byteOffset" : 12, "componentType" : 5126, "count" : 30768, "type" : "VEC3", "max" : [1.0000044107437134, 1.0000044107437134, 1.0000044107437134], "min" : [-1.0000044107437134, -1.0000044107437134, -1.0000044107437134], "name" : "NORMAL"}, {"bufferView" : 1, "byteOffset" : 24, "componentType" : 5126, "count" : 30768, "type" : "VEC2", "max" : [1, -0], "min" : [0, -1.0000001192092896], "name" : "TEXCOORD_0"}, {"bufferView" : 0, "byteOffset" : 61536, "componentType" : 5123, "count" : 11520, "type" : "SCALAR", "max" : [11519], "min" : [0]}, {"bufferView" : 2, "byteOffset" : 0, "componentType" : 5126, "count" : 11520, "type" : "VEC3", "max" : [44.83140182495117, 30.854310989379883, 6.000000953674316], "min" : [-43.500179290771484, -30.854312896728516, 0], "name" : "POSITION"}, {"bufferView" : 2, "byteOffset" : 12, "componentType" : 5126, "count" : 11520, "type" : "VEC3", "max" : [0.9999619126319885, 0.9971182346343994, 1.0000044107437134], "min" : [-0.9978920221328735, -0.9971182942390442, -1.0000044107437134], "name" : "NORMAL"}, {"bufferView" : 2, "byteOffset" : 24, "componentType" : 5126, "count" : 11520, "type" : "VEC2", "max" : [1, -0], "min" : [-8.940696716308594E-08, -1], "name" : "TEXCOORD_0"}, {"bufferView" : 0, "byteOffset" : 84576, "componentType" : 5123, "count" : 8064, "type" : "SCALAR", "max" : [8063], "min" : [0]}, {"bufferView" : 3, "byteOffset" : 0, "componentType" : 5126, "count" : 8064, "type" : "VEC3", "max" : [11.487112045288086, 24.612281799316406, 2.330674409866333], "min" : [-12.469054222106934, -24.612281799316406, -6.45078182220459], "name" : "POSITION"}, {"bufferView" : 3, "byteOffset" : 12, "componentType" : 5126, "count" : 8064, "type" : "VEC3", "max" : [0.9999963045120239, 1.0000042915344238, 0.9995128512382507], "min" : [-1.000002145767212, -1.0000044107437134, -0.9969453811645508], "name" : "NORMAL"}, {"bufferView" : 3, "byteOffset" : 24, "componentType" : 5126, "count" : 8064, "type" : "VEC2", "max" : [1, -0.00769030163064599], "min" : [0, -0.9968711733818054], "name" : "TEXCOORD_0"}], "asset" : {"generator" : "Aspose.3D 22.7", "version" : "2.0"}, "buffers" : [{"uri" : "data:application/octet-stream;base64,", "byteLength" : 1711984}], "bufferViews" : [{"buffer" : 0, "byteOffset" : 0, "byteLength" : 100704, "target" : 34963}, {"buffer" : 0, "byteOffset" : 100708, "byteLength" : 984576, "byteStride" : 32, "target" : 34962}, {"buffer" : 0, "byteOffset" : 1085288, "byteLength" : 368640, "byteStride" : 32, "target" : 34962}, {"buffer" : 0, "byteOffset" : 1453932, "byteLength" : 258048, "byteStride" : 32, "target" : 34962}], "materials" : [{"name" : "Material #25", "pbrMetallicRoughness" : {"baseColorFactor" : [0.5879999995231628, 0.5879999995231628, 0.5879999995231628, 1], "metallicFactor" : 0, "roughnessFactor" : 0}, "emissiveFactor" : [0, 0, 0], "alphaMode" : "OPAQUE", "doubleSided" : false}, {"name" : "Material #25", "pbrMetallicRoughness" : {"baseColorFactor" : [0.5879999995231628, 0.5879999995231628, 0.5879999995231628, 1], "metallicFactor" : 0, "roughnessFactor" : 0}, "emissiveFactor" : [0, 0, 0], "alphaMode" : "OPAQUE", "doubleSided" : false}, {"name" : "Material #25", "pbrMetallicRoughness" : {"baseColorFactor" : [0.5879999995231628, 0.5879999995231628, 0.5879999995231628, 1], "metallicFactor" : 0, "roughnessFactor" : 0}, "emissiveFactor" : [0, 0, 0], "alphaMode" : "OPAQUE", "doubleSided" : false}], "meshes" : [{"primitives" : [{"attributes" : {"POSITION" : 1, "NORMAL" : 2, "TEXCOORD_0" : 3}, "indices" : 0, "material" : 0, "mode" : 4}], "name" : ""}, {"primitives" : [{"attributes" : {"POSITION" : 5, "NORMAL" : 6, "TEXCOORD_0" : 7}, "indices" : 4, "material" : 1, "mode" : 4}], "name" : ""}, {"primitives" : [{"attributes" : {"POSITION" : 9, "NORMAL" : 10, "TEXCOORD_0" : 11}, "indices" : 8, "material" : 2, "mode" : 4}], "name" : ""}], "nodes" : [{"matrix" : [1, 0, 0, 0, 0, 6.123233995736766E-17, -1, 0, 0, 1, 6.123233995736766E-17, 0, -9, 0, 0, 1], "mesh" : 0, "name" : "Cylinder001"}, {"matrix" : [1, 0, 0, 0, 0, 6.123233995736766E-17, -1, 0, 0, 1, 6.123233995736766E-17, 0, -3.832508087158203, 90.07462310791016, -9.306098114336692E-09, 1], "mesh" : 1, "name" : "Box001"}, {"matrix" : [1, 0, 0, 0, 0, 6.123233995736766E-17, -1, 0, 0, 1, 6.123233995736766E-17, 0, -71.34551239013672, 152.9956512451172, 2.5567786110514135E-07, 1], "mesh" : 2, "name" : "Box002"}], "scene" : 0, "scenes" : [{"nodes" : [0, 1, 2]}]}